<?xml version="1.0" encoding="UTF-8"?>
<svg id="Layer_1" data-name="Layer 1" xmlns="http://www.w3.org/2000/svg" version="1.1" viewBox="0 0 800 800">
  <defs>
    <style>
      .cls-1 {
        fill: #ccc;
      }

      .cls-1, .cls-2, .cls-3, .cls-4 {
        stroke-width: 0px;
      }

      .cls-2, .cls-5 {
        fill: #000;
      }

      .cls-5 {
        font-family: Cursive, 'Lucida Sans';
        font-size: 50px;
        font-weight: 600;
      }

      .cls-3 {
        fill: #efdc81;
      }

      .cls-4 {
        fill: #e9b526;
      }
    </style>
  </defs>
  <g>
    <path class="cls-3" d="M64.1,570.6l694.2,203.7-488.8-496.9-205.4,293.3ZM617.9,700.6c2,.8,2.5,2.1,2.1,3.7-1.1,1.6-2.7,2-4.8,1.7l-56.5-16.8c-1.4-.2-2.5-2.1-2.2-3.2v-.6c1.2-1.6,2.8-2,4.9-1.7l56.5,16.8ZM500.7,669.4c-1.1,1.6-2.7,2-4.8,1.7l-375.7-110.3c-1.4-.2-2.5-2.1-2.2-3.2v-.6c1.2-1.6,2.8-2,4.9-1.7l375.7,110.3c2.1.3,2.5,2.1,2.1,3.7Z"/>
    <polygon class="cls-3" points="449.4 21.2 273 272 758.9 765.7 449.4 21.2"/>
  </g>
  <path class="cls-4" d="M31.8,245.1l174.1,125.1,63.4-91.7-4.6-2.4-232.9-31Z"/>
  <polygon class="cls-1" points="263.6 274.3 262.4 276.4 265.1 274.5 263.6 274.3"/>
  <path class="cls-2" d="M52.3,570.8c.1-.6.3-1.1,1.1-1.6L444.2,11.8c1.2-2.2,4.4-2.9,7.3-3.1,3-.2,5.5,1.9,6.5,3.8l319.2,766c1,1.9.4,4.7-2.2,6.1-1.8,1.5-4.9,2.2-7.7,1.3L57.4,577.3c-2-.8-3.3-1.6-4.3-3.5-1.3-.8-1-1.9-.8-3ZM448.4,28.6L69.7,569.1l688.1,201.7L448.4,28.6Z"/>
  <path class="cls-2" d="M262.2,271.2c.3-1.1,1.4-2.7,3.1-3.6,3.4-1.9,7.7-1.3,10.1.8l500.1,508.3c2.3,2.6,1.5,6-1.1,8-3.4,1.9-7.7,1.3-10.1-.8l-500.1-508.3c-2-.8-2.3-2.6-1.9-4.3Z"/>
  <path class="cls-2" d="M13.2,239.7c.1-.6.3-1.1.4-1.7,1.2-2.2,4.5-3.5,8.1-3l245.7,32.8c4.3.6,6.6,3.2,5.8,6.6-.8,3.4-4.2,5.2-8.5,4.7l-221.5-29.5,115.3,83.7c3.2,2.2,3.1,5.6.3,8.1-2.8,2.5-7.2,2.5-10.4.4L15.7,244.7c-2-.8-2.9-3.3-2.5-5Z"/>
  <path class="cls-2" d="M552.9,685.6l.3-1.1c1.4-2.7,5.5-4.5,9.6-3.3l56.5,16.8c3.4,1,5.6,4.2,4.1,7.5-1.4,2.7-5.5,4.5-9.6,3.3l-56.5-16.8c-2.7-.9-5.1-3.6-4.4-6.4Z"/>
  <path class="cls-2" d="M114.4,557.1l.3-1.1c1.4-2.7,5.5-4.5,9.6-3.3l375.7,110.3c3.4,1,5.6,4.2,4.1,7.5-1.4,2.7-5.5,4.5-9.6,3.3l-375.7-110.3c-3.4-1-4.9-4.1-4.4-6.4Z"/>
  <text class="cls-5" transform="translate(320.2 266.4) rotate(48) scale(.9 1)"><tspan x="0" y="0">Scroll to know more!</tspan></text>
</svg>